<svg xmlns="http://www.w3.org/2000/svg" width="798" height="255" viewBox="0 0 798 255" fill="none"><g clip-path="url(#clip0_1318_172)"><path d="M0.106715 48.8432C0.106715 36.4588 8.59055 27.7578 20.4893 27.7578C32.388 27.7578 40.6584 36.2453 40.8718 48.8432C40.8718 60.8005 32.8148 69.7151 20.2225 69.7151C8.32376 69.7151 0.0533574 60.8005 0.0533574 48.8432M0.0533574 122.936C0.0533574 110.552 8.53719 101.851 20.4359 101.851C32.3346 101.851 40.605 110.338 40.8184 122.936C40.8184 134.84 32.7615 143.808 20.1691 143.808C8.2704 143.808 0 134.893 0 122.936" fill="#003A69"></path><path d="M55.8672 10.5687C68.7264 8.48686 85.4273 7.15234 102.875 7.15234C132.435 7.15234 151.697 12.6506 166.37 23.647C182.431 35.6043 192.516 54.6079 192.516 81.8855C192.516 111.458 181.737 131.85 167.064 144.447C150.79 158.006 125.819 164.412 95.5652 164.412C77.477 164.412 64.4044 163.291 55.9206 162.116V10.5687H55.8672Z" fill="#003A69"></path><path d="M90.7109 136.442C93.699 137.136 98.7146 137.136 102.876 137.136C134.731 137.35 155.593 119.948 155.593 83.0081C155.593 50.9263 136.811 33.9512 106.558 33.9512C98.9814 33.9512 93.699 34.6451 90.7109 35.3391V136.442Z" fill="#FFCE06"></path><path d="M335.297 103.665C334.603 85.0884 333.91 62.6151 333.91 40.1418H333.43C328.361 59.8393 321.958 81.8855 315.982 99.9816L297.2 160.302H269.934L253.447 100.676C248.378 82.3126 243.362 60.3197 239.467 40.1418H238.987C238.293 61.0136 237.386 84.8215 236.479 104.092L233.491 162.811H201.156L211.028 8.27344H257.555L272.709 59.8926C277.724 77.7752 282.313 97.0457 285.781 115.142H286.688C290.85 97.2592 296.079 76.8677 301.362 59.6257L317.636 8.27344H363.47L371.687 162.811H337.805L335.297 103.665Z" fill="#004E95"></path><path d="M493.347 126.78C493.347 141.46 493.827 153.364 494.254 162.759H464L462.399 146.958H461.706C457.331 153.844 446.819 165.321 426.65 165.321C403.76 165.321 387.219 151.122 387.219 116.478V50.6593H422.061V110.98C422.061 127.261 427.344 137.136 439.723 137.136C449.38 137.136 455.09 130.517 457.17 124.965C458.078 122.884 458.558 120.375 458.558 117.385V50.6593H493.4V126.78H493.347ZM400.985 19.0579C400.985 9.87635 408.348 2.99023 417.472 2.99023C426.597 2.99023 433.053 9.87635 433.053 19.0579C433.053 28.2394 426.383 35.339 417.259 35.339C408.135 35.339 400.985 27.9725 400.985 19.0579ZM465.174 35.339C456.21 35.339 449.38 27.9725 449.38 19.0579C449.38 10.1433 456.263 2.99023 465.654 2.99023C475.045 2.99023 481.448 9.87635 481.448 19.0579C481.448 28.2394 474.778 35.339 465.654 35.339H465.174Z" fill="#004E95"></path><path d="M546.061 0H511.219V162.811H546.061V0Z" fill="#004E95"></path><path d="M598.35 0H563.508V162.811H598.35V0Z" fill="#004E95"></path><path d="M643.274 117.865C644.181 132.331 658.641 139.164 674.915 139.164C686.814 139.164 696.472 137.562 705.862 134.36L710.451 157.953C698.979 162.757 685 165.052 669.9 165.052C631.856 165.052 610.086 143.061 610.086 107.936C610.086 79.4836 627.747 48.0957 666.698 48.0957C702.928 48.0957 716.694 76.2807 716.694 104.039C716.694 110.018 716 115.249 715.52 117.811H643.328L643.274 117.865ZM684.306 94.0032C684.306 85.5156 680.624 71.3163 664.564 71.3163C649.891 71.3163 643.914 84.8217 643.007 94.0032H684.306Z" fill="#004E95"></path><path d="M728.329 87.5975C728.329 71.1028 728.116 60.3199 727.422 50.658H757.195L758.583 71.3163H759.49C765.199 54.8217 778.752 47.9355 789.743 47.9355C792.945 47.9355 794.546 48.1491 797.053 48.6295V81.4053C794.332 80.9782 791.558 80.4978 787.663 80.4978C774.857 80.4978 766.106 87.3839 763.812 98.1669C763.332 100.463 763.118 103.185 763.118 105.961V162.811H728.276V87.5975H728.329Z" fill="#004E95"></path><path d="M93.1119 236.904C93.1119 247.954 85.9087 254.626 74.2234 254.626H63.125V219.021H74.2234C85.9087 219.021 93.1119 225.854 93.1119 236.904ZM74.2234 250.783C83.5076 250.783 88.3631 245.552 88.3631 236.904C88.3631 228.256 83.5076 222.811 74.2234 222.811H67.7671V250.783H74.2234Z" fill="#003A69"></path><path d="M129.447 219.021H124.805V254.626H129.447V219.021Z" fill="#003A69"></path><path d="M174.162 255C167.012 255 161.943 250.997 161.836 245.125H166.798C167.119 248.061 169.199 251.05 174.162 251.05C178.644 251.05 181.312 248.488 181.312 245.125C181.312 235.516 162.05 241.655 162.05 228.416C162.05 222.545 166.798 218.541 173.842 218.541C180.885 218.541 185.1 222.278 185.634 227.669H180.511C180.191 225.267 177.95 222.545 173.628 222.491C169.786 222.384 166.798 224.36 166.798 228.203C166.798 237.384 186.007 231.673 186.007 244.858C186.007 249.929 181.899 254.893 174.162 254.893" fill="#003A69"></path><path d="M216.258 219.021H240.322V222.811H230.611V254.626H225.969V222.811H216.258V219.021Z" fill="#003A69"></path><path d="M283.113 219.022C291.49 219.022 295.491 223.667 295.491 229.485C295.491 234.022 292.984 238.346 287.008 239.681L295.918 254.574H290.369L281.885 240.001H276.283V254.574H271.641V218.969H283.113V219.022ZM283.113 222.866H276.283V236.371H283.113C288.395 236.371 290.689 233.542 290.689 229.538C290.689 225.535 288.448 222.919 283.113 222.919" fill="#003A69"></path><path d="M332.845 219.021H328.203V254.626H332.845V219.021Z" fill="#003A69"></path><path d="M379.583 254.626H366.297V219.021H379.049C386.573 219.021 390.308 223.132 390.308 228.043C390.308 232.527 387.48 235.142 384.065 236.263C387.96 236.904 391.108 240.64 391.108 245.071C391.108 250.463 386.839 254.626 379.529 254.626M378.622 222.865H370.939V234.395H378.729C383.051 234.395 385.559 232.26 385.559 228.63C385.559 225 383.158 222.865 378.622 222.865ZM378.996 238.238H370.939V250.783H379.156C383.745 250.783 386.519 248.487 386.519 244.591C386.519 240.694 383.585 238.185 378.996 238.185" fill="#003A69"></path><path d="M423.07 219.021H427.712V241.548C427.712 248.114 431.234 250.89 436.516 250.89C441.799 250.89 445.267 248.06 445.267 241.548V219.021H449.909V241.495C449.909 250.729 443.826 255 436.463 255C429.099 255 423.07 250.783 423.07 241.495V219.021Z" fill="#003A69"></path><path d="M487.845 219.021H483.203V254.626H487.845V219.021Z" fill="#003A69"></path><path d="M551.292 236.904C551.292 247.954 544.089 254.626 532.403 254.626H521.305V219.021H532.403C544.089 219.021 551.292 225.854 551.292 236.904ZM532.403 250.783C541.688 250.783 546.543 245.552 546.543 236.904C546.543 228.256 541.688 222.811 532.403 222.811H525.947V250.783H532.403Z" fill="#003A69"></path><path d="M599.148 255C589.116 255 581.273 247.473 581.273 236.797C581.273 226.121 589.116 218.594 599.148 218.594C609.179 218.594 617.022 226.121 617.022 236.797C617.022 247.473 609.232 255 599.148 255ZM599.148 250.943C606.671 250.943 612.274 245.498 612.274 236.797C612.274 228.096 606.671 222.651 599.148 222.651C591.624 222.651 586.022 228.043 586.022 236.797C586.022 245.552 591.624 250.943 599.148 250.943Z" fill="#003A69"></path><path d="M660.192 219.022C668.569 219.022 672.57 223.667 672.57 229.485C672.57 234.022 670.063 238.346 664.087 239.681L673.051 254.574H667.502L659.018 240.001H653.415V254.574H648.773V218.969H660.245L660.192 219.022ZM660.192 222.866H653.362V236.371H660.192C665.474 236.371 667.768 233.542 667.768 229.538C667.768 225.535 665.527 222.919 660.192 222.919" fill="#003A69"></path><path d="M726.356 246.725H710.829L707.948 254.625H703.039L715.898 219.234H721.233L734.039 254.625H729.13L726.249 246.725H726.356ZM718.619 224.946L712.163 242.935H725.022L718.619 224.946Z" fill="#003A69"></path></g><defs><clipPath id="clip0_1318_172"><rect width="798" height="255" fill="white"></rect></clipPath></defs></svg>